<svg width="24" height="24" viewBox="0 0 24 24" fill="none" xmlns="http://www.w3.org/2000/svg">
  <rect x="3" y="3" width="18" height="18" rx="2" fill="#217346"/>
  <path d="M7 8h10v1H7V8z" fill="white"/>
  <path d="M7 10h10v1H7v-1z" fill="white"/>
  <path d="M7 12h10v1H7v-1z" fill="white"/>
  <path d="M7 14h10v1H7v-1z" fill="white"/>
  <path d="M7 16h10v1H7v-1z" fill="white"/>
  <path d="M7 18h10v1H7v-1z" fill="white"/>
  <path d="M9 8v10" stroke="white" stroke-width="0.5"/>
  <path d="M11 8v10" stroke="white" stroke-width="0.5"/>
  <path d="M13 8v10" stroke="white" stroke-width="0.5"/>
  <path d="M15 8v10" stroke="white" stroke-width="0.5"/>
  <path d="M17 8v10" stroke="white" stroke-width="0.5"/>
  <text x="12" y="6" text-anchor="middle" fill="white" font-family="Arial, sans-serif" font-size="8" font-weight="bold">X</text>
</svg>
